<mxfile host="app.diagrams.net" modified="2024-05-04T15:52:36.555Z" agent="Mozilla/5.0 (Windows NT 10.0; Win64; x64) AppleWebKit/537.36 (KHTML, like Gecko) Chrome/124.0.0.0 Safari/537.36" etag="3l4RZxJHH2EzLiLYd9YV" version="24.3.1" type="device">
  <diagram name="Page-1" id="6jPLnzEr1zdCYjzzOg9B">
    <mxGraphModel dx="1768" dy="1665" grid="1" gridSize="10" guides="1" tooltips="1" connect="1" arrows="1" fold="1" page="1" pageScale="1" pageWidth="827" pageHeight="1169" math="0" shadow="0">
      <root>
        <mxCell id="0" />
        <mxCell id="1" parent="0" />
        <mxCell id="xWOCs63Ue0t1H7n3Oqhw-1" value="R" style="ellipse;whiteSpace=wrap;html=1;" parent="1" vertex="1">
          <mxGeometry x="340" y="70" width="120" height="80" as="geometry" />
        </mxCell>
        <mxCell id="xWOCs63Ue0t1H7n3Oqhw-2" value="nc : ??,???,??,?,?+1,2&lt;div&gt;np : #.,???,??,?,?+1,2&lt;/div&gt;" style="rounded=1;whiteSpace=wrap;html=1;" parent="1" vertex="1">
          <mxGeometry x="-100" y="270" width="150" height="60" as="geometry" />
        </mxCell>
        <mxCell id="xWOCs63Ue0t1H7n3Oqhw-3" value="nc : ???,??,?,?+2&lt;div&gt;np : ##.,??,?,?+2&lt;/div&gt;" style="rounded=1;whiteSpace=wrap;html=1;" parent="1" vertex="1">
          <mxGeometry x="-240" y="470" width="150" height="60" as="geometry" />
        </mxCell>
        <mxCell id="xWOCs63Ue0t1H7n3Oqhw-4" value="nc : ???,??,?,?+2&lt;div&gt;np : ##,?,?+2&lt;/div&gt;" style="rounded=1;whiteSpace=wrap;html=1;" parent="1" vertex="1">
          <mxGeometry x="150" y="470" width="150" height="60" as="geometry" />
        </mxCell>
        <mxCell id="xWOCs63Ue0t1H7n3Oqhw-6" value="" style="endArrow=classic;html=1;rounded=0;entryX=0.295;entryY=0.009;entryDx=0;entryDy=0;entryPerimeter=0;exitX=0.25;exitY=1;exitDx=0;exitDy=0;" parent="1" source="xWOCs63Ue0t1H7n3Oqhw-2" target="xWOCs63Ue0t1H7n3Oqhw-3" edge="1">
          <mxGeometry width="50" height="50" relative="1" as="geometry">
            <mxPoint x="140" y="390" as="sourcePoint" />
            <mxPoint x="190" y="340" as="targetPoint" />
          </mxGeometry>
        </mxCell>
        <mxCell id="xWOCs63Ue0t1H7n3Oqhw-7" value="" style="endArrow=classic;html=1;rounded=0;entryX=0.25;entryY=0;entryDx=0;entryDy=0;exitX=0.675;exitY=1.012;exitDx=0;exitDy=0;exitPerimeter=0;" parent="1" source="xWOCs63Ue0t1H7n3Oqhw-2" target="xWOCs63Ue0t1H7n3Oqhw-4" edge="1">
          <mxGeometry width="50" height="50" relative="1" as="geometry">
            <mxPoint x="140" y="390" as="sourcePoint" />
            <mxPoint x="190" y="340" as="targetPoint" />
          </mxGeometry>
        </mxCell>
        <mxCell id="xWOCs63Ue0t1H7n3Oqhw-8" value="nc : ??,???,??,?,?+1,2&lt;div&gt;np : #,???,??,?,?+1,2&lt;/div&gt;" style="rounded=1;whiteSpace=wrap;html=1;" parent="1" vertex="1">
          <mxGeometry x="110" y="270" width="150" height="60" as="geometry" />
        </mxCell>
        <mxCell id="xWOCs63Ue0t1H7n3Oqhw-9" value="" style="endArrow=classic;html=1;rounded=0;exitX=0.119;exitY=0.982;exitDx=0;exitDy=0;exitPerimeter=0;" parent="1" source="xWOCs63Ue0t1H7n3Oqhw-8" edge="1">
          <mxGeometry width="50" height="50" relative="1" as="geometry">
            <mxPoint x="140" y="300" as="sourcePoint" />
            <mxPoint x="-130" y="470" as="targetPoint" />
          </mxGeometry>
        </mxCell>
        <mxCell id="xWOCs63Ue0t1H7n3Oqhw-10" value="" style="endArrow=classic;html=1;rounded=0;exitX=0.5;exitY=1;exitDx=0;exitDy=0;entryX=0.5;entryY=0;entryDx=0;entryDy=0;" parent="1" source="xWOCs63Ue0t1H7n3Oqhw-8" target="xWOCs63Ue0t1H7n3Oqhw-4" edge="1">
          <mxGeometry width="50" height="50" relative="1" as="geometry">
            <mxPoint x="290" y="370" as="sourcePoint" />
            <mxPoint x="340" y="320" as="targetPoint" />
          </mxGeometry>
        </mxCell>
        <mxCell id="xWOCs63Ue0t1H7n3Oqhw-11" value="" style="endArrow=classic;html=1;rounded=0;exitX=0;exitY=0.5;exitDx=0;exitDy=0;entryX=0.5;entryY=0;entryDx=0;entryDy=0;" parent="1" source="xWOCs63Ue0t1H7n3Oqhw-1" target="xWOCs63Ue0t1H7n3Oqhw-2" edge="1">
          <mxGeometry width="50" height="50" relative="1" as="geometry">
            <mxPoint x="100" y="370" as="sourcePoint" />
            <mxPoint x="150" y="320" as="targetPoint" />
          </mxGeometry>
        </mxCell>
        <mxCell id="xWOCs63Ue0t1H7n3Oqhw-13" value="" style="endArrow=classic;html=1;rounded=0;exitX=0.08;exitY=0.824;exitDx=0;exitDy=0;exitPerimeter=0;entryX=0.531;entryY=-0.012;entryDx=0;entryDy=0;entryPerimeter=0;" parent="1" source="xWOCs63Ue0t1H7n3Oqhw-1" target="xWOCs63Ue0t1H7n3Oqhw-8" edge="1">
          <mxGeometry width="50" height="50" relative="1" as="geometry">
            <mxPoint x="220" y="230" as="sourcePoint" />
            <mxPoint x="240" y="250" as="targetPoint" />
          </mxGeometry>
        </mxCell>
        <mxCell id="xWOCs63Ue0t1H7n3Oqhw-14" value="nc : ???,??,?,?+2&lt;div&gt;np : ##&lt;span style=&quot;background-color: initial;&quot;&gt;,??,?,?+2&lt;/span&gt;&lt;/div&gt;" style="rounded=1;whiteSpace=wrap;html=1;" parent="1" vertex="1">
          <mxGeometry x="-40" y="470" width="150" height="60" as="geometry" />
        </mxCell>
        <mxCell id="xWOCs63Ue0t1H7n3Oqhw-15" value="" style="endArrow=classic;html=1;rounded=0;exitX=0.5;exitY=1;exitDx=0;exitDy=0;entryX=0.25;entryY=0;entryDx=0;entryDy=0;" parent="1" source="xWOCs63Ue0t1H7n3Oqhw-2" target="xWOCs63Ue0t1H7n3Oqhw-14" edge="1">
          <mxGeometry width="50" height="50" relative="1" as="geometry">
            <mxPoint x="190" y="430" as="sourcePoint" />
            <mxPoint x="240" y="380" as="targetPoint" />
          </mxGeometry>
        </mxCell>
        <mxCell id="xWOCs63Ue0t1H7n3Oqhw-16" value="" style="endArrow=classic;html=1;rounded=0;exitX=0.25;exitY=1;exitDx=0;exitDy=0;entryX=0.75;entryY=0;entryDx=0;entryDy=0;" parent="1" source="xWOCs63Ue0t1H7n3Oqhw-8" target="xWOCs63Ue0t1H7n3Oqhw-14" edge="1">
          <mxGeometry width="50" height="50" relative="1" as="geometry">
            <mxPoint x="190" y="430" as="sourcePoint" />
            <mxPoint x="240" y="380" as="targetPoint" />
          </mxGeometry>
        </mxCell>
        <mxCell id="xWOCs63Ue0t1H7n3Oqhw-17" value="" style="endArrow=none;dashed=1;html=1;dashPattern=1 3;strokeWidth=2;rounded=0;exitX=1;exitY=0.5;exitDx=0;exitDy=0;entryX=0;entryY=0.5;entryDx=0;entryDy=0;" parent="1" source="xWOCs63Ue0t1H7n3Oqhw-3" target="xWOCs63Ue0t1H7n3Oqhw-14" edge="1">
          <mxGeometry width="50" height="50" relative="1" as="geometry">
            <mxPoint x="190" y="430" as="sourcePoint" />
            <mxPoint x="240" y="380" as="targetPoint" />
          </mxGeometry>
        </mxCell>
        <mxCell id="xWOCs63Ue0t1H7n3Oqhw-18" value="" style="endArrow=none;dashed=1;html=1;dashPattern=1 3;strokeWidth=2;rounded=0;exitX=1;exitY=0.5;exitDx=0;exitDy=0;entryX=0;entryY=0.5;entryDx=0;entryDy=0;" parent="1" source="xWOCs63Ue0t1H7n3Oqhw-14" target="xWOCs63Ue0t1H7n3Oqhw-4" edge="1">
          <mxGeometry width="50" height="50" relative="1" as="geometry">
            <mxPoint x="-80" y="510" as="sourcePoint" />
            <mxPoint x="-30" y="510" as="targetPoint" />
          </mxGeometry>
        </mxCell>
        <mxCell id="xWOCs63Ue0t1H7n3Oqhw-19" value="" style="endArrow=none;dashed=1;html=1;dashPattern=1 3;strokeWidth=2;rounded=0;exitX=1;exitY=0.5;exitDx=0;exitDy=0;entryX=0;entryY=0.5;entryDx=0;entryDy=0;" parent="1" source="xWOCs63Ue0t1H7n3Oqhw-2" target="xWOCs63Ue0t1H7n3Oqhw-8" edge="1">
          <mxGeometry width="50" height="50" relative="1" as="geometry">
            <mxPoint x="120" y="510" as="sourcePoint" />
            <mxPoint x="160" y="510" as="targetPoint" />
          </mxGeometry>
        </mxCell>
        <mxCell id="xWOCs63Ue0t1H7n3Oqhw-20" value="nc : ??,???,??,?,?+1,2&lt;div&gt;np : #.,?,??,?,?+1,2&lt;/div&gt;" style="rounded=1;whiteSpace=wrap;html=1;" parent="1" vertex="1">
          <mxGeometry x="325" y="270" width="150" height="60" as="geometry" />
        </mxCell>
        <mxCell id="xWOCs63Ue0t1H7n3Oqhw-21" value="" style="endArrow=classic;html=1;rounded=0;exitX=0.5;exitY=1;exitDx=0;exitDy=0;entryX=0.75;entryY=0;entryDx=0;entryDy=0;" parent="1" source="xWOCs63Ue0t1H7n3Oqhw-20" target="xWOCs63Ue0t1H7n3Oqhw-4" edge="1">
          <mxGeometry width="50" height="50" relative="1" as="geometry">
            <mxPoint x="380" y="430" as="sourcePoint" />
            <mxPoint x="430" y="380" as="targetPoint" />
          </mxGeometry>
        </mxCell>
        <mxCell id="xWOCs63Ue0t1H7n3Oqhw-22" value="" style="endArrow=none;dashed=1;html=1;dashPattern=1 3;strokeWidth=2;rounded=0;exitX=1;exitY=0.5;exitDx=0;exitDy=0;entryX=0;entryY=0.5;entryDx=0;entryDy=0;" parent="1" source="xWOCs63Ue0t1H7n3Oqhw-8" target="xWOCs63Ue0t1H7n3Oqhw-20" edge="1">
          <mxGeometry width="50" height="50" relative="1" as="geometry">
            <mxPoint x="60" y="310" as="sourcePoint" />
            <mxPoint x="120" y="310" as="targetPoint" />
          </mxGeometry>
        </mxCell>
        <mxCell id="xWOCs63Ue0t1H7n3Oqhw-23" value="nc : ??,???,??,?,?+1,2&lt;div&gt;np : #.&lt;span style=&quot;background-color: initial;&quot;&gt;,??,?,?+1,2&lt;/span&gt;&lt;/div&gt;" style="rounded=1;whiteSpace=wrap;html=1;" parent="1" vertex="1">
          <mxGeometry x="530" y="270" width="150" height="60" as="geometry" />
        </mxCell>
        <mxCell id="xWOCs63Ue0t1H7n3Oqhw-24" value="" style="endArrow=classic;html=1;rounded=0;exitX=0.25;exitY=1;exitDx=0;exitDy=0;entryX=1;entryY=0;entryDx=0;entryDy=0;" parent="1" source="xWOCs63Ue0t1H7n3Oqhw-23" target="xWOCs63Ue0t1H7n3Oqhw-4" edge="1">
          <mxGeometry width="50" height="50" relative="1" as="geometry">
            <mxPoint x="510" y="360" as="sourcePoint" />
            <mxPoint x="560" y="520" as="targetPoint" />
          </mxGeometry>
        </mxCell>
        <mxCell id="xWOCs63Ue0t1H7n3Oqhw-25" value="" style="endArrow=none;dashed=1;html=1;dashPattern=1 3;strokeWidth=2;rounded=0;exitX=1;exitY=0.5;exitDx=0;exitDy=0;entryX=0;entryY=0.5;entryDx=0;entryDy=0;" parent="1" source="xWOCs63Ue0t1H7n3Oqhw-20" target="xWOCs63Ue0t1H7n3Oqhw-23" edge="1">
          <mxGeometry width="50" height="50" relative="1" as="geometry">
            <mxPoint x="475" y="299.71" as="sourcePoint" />
            <mxPoint x="540" y="299.71" as="targetPoint" />
          </mxGeometry>
        </mxCell>
        <mxCell id="xWOCs63Ue0t1H7n3Oqhw-26" value="nc : ??,???,??,?,?+1,2&lt;div&gt;np : #&lt;span style=&quot;background-color: initial;&quot;&gt;,??,?,?+1,2&lt;/span&gt;&lt;/div&gt;" style="rounded=1;whiteSpace=wrap;html=1;" parent="1" vertex="1">
          <mxGeometry x="730" y="270" width="150" height="60" as="geometry" />
        </mxCell>
        <mxCell id="xWOCs63Ue0t1H7n3Oqhw-27" value="" style="endArrow=none;dashed=1;html=1;dashPattern=1 3;strokeWidth=2;rounded=0;exitX=1;exitY=0.5;exitDx=0;exitDy=0;entryX=0;entryY=0.5;entryDx=0;entryDy=0;" parent="1" source="xWOCs63Ue0t1H7n3Oqhw-23" target="xWOCs63Ue0t1H7n3Oqhw-26" edge="1">
          <mxGeometry width="50" height="50" relative="1" as="geometry">
            <mxPoint x="485" y="310" as="sourcePoint" />
            <mxPoint x="540" y="310" as="targetPoint" />
          </mxGeometry>
        </mxCell>
        <mxCell id="xWOCs63Ue0t1H7n3Oqhw-28" value="" style="endArrow=classic;html=1;rounded=0;exitX=0;exitY=1;exitDx=0;exitDy=0;entryX=1;entryY=0.5;entryDx=0;entryDy=0;" parent="1" source="xWOCs63Ue0t1H7n3Oqhw-26" target="xWOCs63Ue0t1H7n3Oqhw-4" edge="1">
          <mxGeometry width="50" height="50" relative="1" as="geometry">
            <mxPoint x="578" y="340" as="sourcePoint" />
            <mxPoint x="310" y="480" as="targetPoint" />
          </mxGeometry>
        </mxCell>
        <mxCell id="xWOCs63Ue0t1H7n3Oqhw-29" value="" style="endArrow=classic;html=1;rounded=0;exitX=0.5;exitY=1;exitDx=0;exitDy=0;" parent="1" source="xWOCs63Ue0t1H7n3Oqhw-1" target="xWOCs63Ue0t1H7n3Oqhw-20" edge="1">
          <mxGeometry width="50" height="50" relative="1" as="geometry">
            <mxPoint x="360" y="146" as="sourcePoint" />
            <mxPoint x="200" y="279" as="targetPoint" />
          </mxGeometry>
        </mxCell>
        <mxCell id="xWOCs63Ue0t1H7n3Oqhw-30" value="" style="endArrow=classic;html=1;rounded=0;exitX=1;exitY=1;exitDx=0;exitDy=0;entryX=0.5;entryY=0;entryDx=0;entryDy=0;" parent="1" source="xWOCs63Ue0t1H7n3Oqhw-1" target="xWOCs63Ue0t1H7n3Oqhw-23" edge="1">
          <mxGeometry width="50" height="50" relative="1" as="geometry">
            <mxPoint x="370" y="156" as="sourcePoint" />
            <mxPoint x="210" y="289" as="targetPoint" />
          </mxGeometry>
        </mxCell>
        <mxCell id="xWOCs63Ue0t1H7n3Oqhw-31" value="" style="endArrow=classic;html=1;rounded=0;exitX=1;exitY=0.5;exitDx=0;exitDy=0;entryX=0.5;entryY=0;entryDx=0;entryDy=0;" parent="1" source="xWOCs63Ue0t1H7n3Oqhw-1" target="xWOCs63Ue0t1H7n3Oqhw-26" edge="1">
          <mxGeometry width="50" height="50" relative="1" as="geometry">
            <mxPoint x="380" y="166" as="sourcePoint" />
            <mxPoint x="220" y="299" as="targetPoint" />
          </mxGeometry>
        </mxCell>
        <mxCell id="xWOCs63Ue0t1H7n3Oqhw-32" value="&lt;font style=&quot;font-size: 12px;&quot;&gt;??.???..??..?.? 1,2&lt;/font&gt;&lt;div&gt;&lt;font style=&quot;font-size: 12px;&quot;&gt;#..???..##..?.?&lt;br&gt;&lt;/font&gt;&lt;/div&gt;&lt;div&gt;&lt;font style=&quot;font-size: 12px;&quot;&gt;&lt;span style=&quot;background-color: initial;&quot;&gt;#...##..??..?.?&lt;/span&gt;&lt;/font&gt;&lt;/div&gt;&lt;div&gt;&lt;font style=&quot;font-size: 12px;&quot;&gt;#..##...??..?.?&lt;br&gt;&lt;/font&gt;&lt;/div&gt;&lt;div&gt;&lt;span style=&quot;background-color: initial;&quot;&gt;.#.???..##..?.?&lt;/span&gt;&lt;br&gt;&lt;/div&gt;&lt;div&gt;&lt;font style=&quot;font-size: 12px;&quot;&gt;&lt;div style=&quot;border-color: var(--border-color);&quot;&gt;&lt;font style=&quot;border-color: var(--border-color);&quot;&gt;&lt;span style=&quot;border-color: var(--border-color); background-color: initial;&quot;&gt;.#..##..??..?.?&lt;/span&gt;&lt;/font&gt;&lt;/div&gt;&lt;div style=&quot;border-color: var(--border-color);&quot;&gt;&lt;font style=&quot;border-color: var(--border-color);&quot;&gt;.#.##...??..?.?&lt;/font&gt;&lt;/div&gt;&lt;/font&gt;&lt;/div&gt;&lt;div&gt;&lt;font style=&quot;font-size: 12px;&quot;&gt;...#.?..##..?.?&lt;br&gt;&lt;/font&gt;&lt;/div&gt;&lt;div&gt;&lt;font style=&quot;font-size: 12px;&quot;&gt;....#...##..?.?&lt;br&gt;&lt;/font&gt;&lt;/div&gt;&lt;div&gt;&lt;font style=&quot;font-size: 12px;&quot;&gt;.....#..##..?.?&lt;/font&gt;&lt;/div&gt;" style="rounded=1;whiteSpace=wrap;html=1;perimeterSpacing=3;" parent="1" vertex="1">
          <mxGeometry x="330" y="-160" width="200" height="170" as="geometry" />
        </mxCell>
        <mxCell id="Zy5Tw2WqweGs_p7rKQYM-1" value="R&lt;div&gt;&lt;span style=&quot;color: rgb(153, 255, 153);&quot;&gt;25 arrangements&lt;/span&gt;&lt;br&gt;&lt;/div&gt;" style="ellipse;whiteSpace=wrap;html=1;" vertex="1" parent="1">
          <mxGeometry x="379" y="1270" width="120" height="80" as="geometry" />
        </mxCell>
        <mxCell id="Zy5Tw2WqweGs_p7rKQYM-2" value="nc : ??,???,??,?,?+1,2,1,1&lt;div&gt;np : #.,???,??,?,?+1,2,1,1&lt;/div&gt;&lt;div&gt;&lt;span style=&quot;color: rgb(153, 255, 153);&quot;&gt;11 arrangements&lt;/span&gt;&lt;br&gt;&lt;/div&gt;" style="rounded=1;whiteSpace=wrap;html=1;" vertex="1" parent="1">
          <mxGeometry x="-61" y="1470" width="150" height="60" as="geometry" />
        </mxCell>
        <mxCell id="Zy5Tw2WqweGs_p7rKQYM-3" value="nc : ???,??,?,?+2,1,1&lt;div&gt;np : ##.,??,?,?+2,1,1&lt;/div&gt;&lt;div&gt;&lt;span style=&quot;color: rgb(153, 255, 153);&quot;&gt;5 arrangements&lt;/span&gt;&lt;br&gt;&lt;/div&gt;" style="rounded=1;whiteSpace=wrap;html=1;" vertex="1" parent="1">
          <mxGeometry x="-201" y="1670" width="150" height="60" as="geometry" />
        </mxCell>
        <mxCell id="Zy5Tw2WqweGs_p7rKQYM-4" value="nc : ???,??,?,?+2,1,1&lt;div&gt;np : ##,?,?+2,1,1&lt;/div&gt;&lt;div&gt;&lt;span style=&quot;color: rgb(153, 255, 153);&quot;&gt;1 arrangement&lt;/span&gt;&lt;br&gt;&lt;/div&gt;" style="rounded=1;whiteSpace=wrap;html=1;" vertex="1" parent="1">
          <mxGeometry x="189" y="1670" width="150" height="60" as="geometry" />
        </mxCell>
        <mxCell id="Zy5Tw2WqweGs_p7rKQYM-5" value="" style="endArrow=classic;html=1;rounded=0;entryX=0.295;entryY=0.009;entryDx=0;entryDy=0;entryPerimeter=0;exitX=0.25;exitY=1;exitDx=0;exitDy=0;fillColor=#d5e8d4;strokeColor=#82b366;" edge="1" parent="1" source="Zy5Tw2WqweGs_p7rKQYM-2" target="Zy5Tw2WqweGs_p7rKQYM-3">
          <mxGeometry width="50" height="50" relative="1" as="geometry">
            <mxPoint x="179" y="1590" as="sourcePoint" />
            <mxPoint x="229" y="1540" as="targetPoint" />
          </mxGeometry>
        </mxCell>
        <mxCell id="Zy5Tw2WqweGs_p7rKQYM-6" value="" style="endArrow=classic;html=1;rounded=0;entryX=0.25;entryY=0;entryDx=0;entryDy=0;exitX=0.675;exitY=1.012;exitDx=0;exitDy=0;exitPerimeter=0;fillColor=#d5e8d4;strokeColor=#82b366;" edge="1" parent="1" source="Zy5Tw2WqweGs_p7rKQYM-2" target="Zy5Tw2WqweGs_p7rKQYM-4">
          <mxGeometry width="50" height="50" relative="1" as="geometry">
            <mxPoint x="179" y="1590" as="sourcePoint" />
            <mxPoint x="229" y="1540" as="targetPoint" />
          </mxGeometry>
        </mxCell>
        <mxCell id="Zy5Tw2WqweGs_p7rKQYM-7" value="nc : ??,???,??,?,?+1,2,1,1&lt;div&gt;np : #,???,??,?,?+1,2,1,1&lt;/div&gt;&lt;div&gt;&lt;span style=&quot;color: rgb(153, 255, 153);&quot;&gt;11 arrangements&lt;/span&gt;&lt;br&gt;&lt;/div&gt;" style="rounded=1;whiteSpace=wrap;html=1;" vertex="1" parent="1">
          <mxGeometry x="149" y="1470" width="150" height="60" as="geometry" />
        </mxCell>
        <mxCell id="Zy5Tw2WqweGs_p7rKQYM-8" value="" style="endArrow=classic;html=1;rounded=0;exitX=0.119;exitY=0.982;exitDx=0;exitDy=0;exitPerimeter=0;fillColor=#f8cecc;strokeColor=#b85450;" edge="1" parent="1" source="Zy5Tw2WqweGs_p7rKQYM-7">
          <mxGeometry width="50" height="50" relative="1" as="geometry">
            <mxPoint x="179" y="1500" as="sourcePoint" />
            <mxPoint x="-91" y="1670" as="targetPoint" />
          </mxGeometry>
        </mxCell>
        <mxCell id="Zy5Tw2WqweGs_p7rKQYM-9" value="" style="endArrow=classic;html=1;rounded=0;exitX=0.5;exitY=1;exitDx=0;exitDy=0;entryX=0.5;entryY=0;entryDx=0;entryDy=0;fillColor=#f8cecc;strokeColor=#b85450;" edge="1" parent="1" source="Zy5Tw2WqweGs_p7rKQYM-7" target="Zy5Tw2WqweGs_p7rKQYM-4">
          <mxGeometry width="50" height="50" relative="1" as="geometry">
            <mxPoint x="329" y="1570" as="sourcePoint" />
            <mxPoint x="379" y="1520" as="targetPoint" />
          </mxGeometry>
        </mxCell>
        <mxCell id="Zy5Tw2WqweGs_p7rKQYM-10" value="" style="endArrow=classic;html=1;rounded=0;exitX=0;exitY=0.5;exitDx=0;exitDy=0;entryX=0.5;entryY=0;entryDx=0;entryDy=0;fillColor=#d5e8d4;strokeColor=#82b366;" edge="1" parent="1" source="Zy5Tw2WqweGs_p7rKQYM-1" target="Zy5Tw2WqweGs_p7rKQYM-2">
          <mxGeometry width="50" height="50" relative="1" as="geometry">
            <mxPoint x="139" y="1570" as="sourcePoint" />
            <mxPoint x="189" y="1520" as="targetPoint" />
          </mxGeometry>
        </mxCell>
        <mxCell id="Zy5Tw2WqweGs_p7rKQYM-11" value="" style="endArrow=classic;html=1;rounded=0;exitX=0.08;exitY=0.824;exitDx=0;exitDy=0;exitPerimeter=0;entryX=0.531;entryY=-0.012;entryDx=0;entryDy=0;entryPerimeter=0;fillColor=#d5e8d4;strokeColor=#82b366;" edge="1" parent="1" source="Zy5Tw2WqweGs_p7rKQYM-1" target="Zy5Tw2WqweGs_p7rKQYM-7">
          <mxGeometry width="50" height="50" relative="1" as="geometry">
            <mxPoint x="259" y="1430" as="sourcePoint" />
            <mxPoint x="279" y="1450" as="targetPoint" />
          </mxGeometry>
        </mxCell>
        <mxCell id="Zy5Tw2WqweGs_p7rKQYM-12" value="nc : ???,??,?,?+2,1,1&lt;div&gt;np : ##&lt;span style=&quot;background-color: initial;&quot;&gt;,??,?,?+2,1,1&lt;/span&gt;&lt;/div&gt;&lt;div&gt;&lt;span style=&quot;color: rgb(153, 255, 153);&quot;&gt;5 arrangements&lt;/span&gt;&lt;span style=&quot;background-color: initial;&quot;&gt;&lt;br&gt;&lt;/span&gt;&lt;/div&gt;" style="rounded=1;whiteSpace=wrap;html=1;" vertex="1" parent="1">
          <mxGeometry x="-1" y="1670" width="150" height="60" as="geometry" />
        </mxCell>
        <mxCell id="Zy5Tw2WqweGs_p7rKQYM-13" value="" style="endArrow=classic;html=1;rounded=0;exitX=0.5;exitY=1;exitDx=0;exitDy=0;entryX=0.25;entryY=0;entryDx=0;entryDy=0;fillColor=#d5e8d4;strokeColor=#82b366;" edge="1" parent="1" source="Zy5Tw2WqweGs_p7rKQYM-2" target="Zy5Tw2WqweGs_p7rKQYM-12">
          <mxGeometry width="50" height="50" relative="1" as="geometry">
            <mxPoint x="229" y="1630" as="sourcePoint" />
            <mxPoint x="279" y="1580" as="targetPoint" />
          </mxGeometry>
        </mxCell>
        <mxCell id="Zy5Tw2WqweGs_p7rKQYM-14" value="" style="endArrow=classic;html=1;rounded=0;exitX=0.25;exitY=1;exitDx=0;exitDy=0;entryX=0.75;entryY=0;entryDx=0;entryDy=0;fillColor=#f8cecc;strokeColor=#b85450;" edge="1" parent="1" source="Zy5Tw2WqweGs_p7rKQYM-7" target="Zy5Tw2WqweGs_p7rKQYM-12">
          <mxGeometry width="50" height="50" relative="1" as="geometry">
            <mxPoint x="229" y="1630" as="sourcePoint" />
            <mxPoint x="279" y="1580" as="targetPoint" />
          </mxGeometry>
        </mxCell>
        <mxCell id="Zy5Tw2WqweGs_p7rKQYM-15" value="" style="endArrow=none;dashed=1;html=1;dashPattern=1 3;strokeWidth=2;rounded=0;exitX=1;exitY=0.5;exitDx=0;exitDy=0;entryX=0;entryY=0.5;entryDx=0;entryDy=0;fillColor=#d5e8d4;strokeColor=#82b366;" edge="1" parent="1" source="Zy5Tw2WqweGs_p7rKQYM-3" target="Zy5Tw2WqweGs_p7rKQYM-12">
          <mxGeometry width="50" height="50" relative="1" as="geometry">
            <mxPoint x="229" y="1630" as="sourcePoint" />
            <mxPoint x="279" y="1580" as="targetPoint" />
          </mxGeometry>
        </mxCell>
        <mxCell id="Zy5Tw2WqweGs_p7rKQYM-16" value="" style="endArrow=none;dashed=1;html=1;dashPattern=1 3;strokeWidth=2;rounded=0;exitX=1;exitY=0.5;exitDx=0;exitDy=0;entryX=0;entryY=0.5;entryDx=0;entryDy=0;fillColor=#d5e8d4;strokeColor=#82b366;" edge="1" parent="1" source="Zy5Tw2WqweGs_p7rKQYM-12" target="Zy5Tw2WqweGs_p7rKQYM-4">
          <mxGeometry width="50" height="50" relative="1" as="geometry">
            <mxPoint x="-41" y="1710" as="sourcePoint" />
            <mxPoint x="9" y="1710" as="targetPoint" />
          </mxGeometry>
        </mxCell>
        <mxCell id="Zy5Tw2WqweGs_p7rKQYM-17" value="" style="endArrow=none;dashed=1;html=1;dashPattern=1 3;strokeWidth=2;rounded=0;exitX=1;exitY=0.5;exitDx=0;exitDy=0;entryX=0;entryY=0.5;entryDx=0;entryDy=0;fillColor=#d5e8d4;strokeColor=#82b366;" edge="1" parent="1" source="Zy5Tw2WqweGs_p7rKQYM-2" target="Zy5Tw2WqweGs_p7rKQYM-7">
          <mxGeometry width="50" height="50" relative="1" as="geometry">
            <mxPoint x="159" y="1710" as="sourcePoint" />
            <mxPoint x="199" y="1710" as="targetPoint" />
          </mxGeometry>
        </mxCell>
        <mxCell id="Zy5Tw2WqweGs_p7rKQYM-18" value="nc : ??,???,??,?,?+1,2,1,1&lt;div&gt;np : #.,?,??,?,?+1,2,1,1&lt;/div&gt;&lt;div&gt;&lt;span style=&quot;color: rgb(153, 255, 153);&quot;&gt;1 arrangement&lt;/span&gt;&lt;br&gt;&lt;/div&gt;" style="rounded=1;whiteSpace=wrap;html=1;" vertex="1" parent="1">
          <mxGeometry x="364" y="1470" width="150" height="60" as="geometry" />
        </mxCell>
        <mxCell id="Zy5Tw2WqweGs_p7rKQYM-19" value="" style="endArrow=classic;html=1;rounded=0;exitX=0.5;exitY=1;exitDx=0;exitDy=0;entryX=0.75;entryY=0;entryDx=0;entryDy=0;fillColor=#e1d5e7;strokeColor=#9673a6;" edge="1" parent="1" source="Zy5Tw2WqweGs_p7rKQYM-18" target="Zy5Tw2WqweGs_p7rKQYM-4">
          <mxGeometry width="50" height="50" relative="1" as="geometry">
            <mxPoint x="419" y="1630" as="sourcePoint" />
            <mxPoint x="469" y="1580" as="targetPoint" />
          </mxGeometry>
        </mxCell>
        <mxCell id="Zy5Tw2WqweGs_p7rKQYM-20" value="" style="endArrow=none;dashed=1;html=1;dashPattern=1 3;strokeWidth=2;rounded=0;exitX=1;exitY=0.5;exitDx=0;exitDy=0;entryX=0;entryY=0.5;entryDx=0;entryDy=0;fillColor=#d5e8d4;strokeColor=#82b366;" edge="1" parent="1" source="Zy5Tw2WqweGs_p7rKQYM-7" target="Zy5Tw2WqweGs_p7rKQYM-18">
          <mxGeometry width="50" height="50" relative="1" as="geometry">
            <mxPoint x="99" y="1510" as="sourcePoint" />
            <mxPoint x="159" y="1510" as="targetPoint" />
          </mxGeometry>
        </mxCell>
        <mxCell id="Zy5Tw2WqweGs_p7rKQYM-21" value="nc : ??,???,??,?,?+1,2,1,1&lt;div&gt;np : #.&lt;span style=&quot;background-color: initial;&quot;&gt;,??,?,?+1,2,1,1&lt;/span&gt;&lt;/div&gt;&lt;div&gt;&lt;span style=&quot;color: rgb(153, 255, 153);&quot;&gt;1 arrangement&lt;/span&gt;&lt;span style=&quot;background-color: initial;&quot;&gt;&lt;br&gt;&lt;/span&gt;&lt;/div&gt;" style="rounded=1;whiteSpace=wrap;html=1;" vertex="1" parent="1">
          <mxGeometry x="569" y="1470" width="150" height="60" as="geometry" />
        </mxCell>
        <mxCell id="Zy5Tw2WqweGs_p7rKQYM-22" value="" style="endArrow=classic;html=1;rounded=0;exitX=0.25;exitY=1;exitDx=0;exitDy=0;entryX=1;entryY=0;entryDx=0;entryDy=0;fillColor=#e1d5e7;strokeColor=#9673a6;" edge="1" parent="1" source="Zy5Tw2WqweGs_p7rKQYM-21" target="Zy5Tw2WqweGs_p7rKQYM-4">
          <mxGeometry width="50" height="50" relative="1" as="geometry">
            <mxPoint x="549" y="1560" as="sourcePoint" />
            <mxPoint x="599" y="1720" as="targetPoint" />
          </mxGeometry>
        </mxCell>
        <mxCell id="Zy5Tw2WqweGs_p7rKQYM-23" value="" style="endArrow=none;dashed=1;html=1;dashPattern=1 3;strokeWidth=2;rounded=0;exitX=1;exitY=0.5;exitDx=0;exitDy=0;entryX=0;entryY=0.5;entryDx=0;entryDy=0;fillColor=#d5e8d4;strokeColor=#82b366;" edge="1" parent="1" source="Zy5Tw2WqweGs_p7rKQYM-18" target="Zy5Tw2WqweGs_p7rKQYM-21">
          <mxGeometry width="50" height="50" relative="1" as="geometry">
            <mxPoint x="514" y="1499.71" as="sourcePoint" />
            <mxPoint x="579" y="1499.71" as="targetPoint" />
          </mxGeometry>
        </mxCell>
        <mxCell id="Zy5Tw2WqweGs_p7rKQYM-24" value="nc : ??,???,??,?,?+1,2,1,1&lt;div&gt;np : #&lt;span style=&quot;background-color: initial;&quot;&gt;,??,?,?+1,2,1,1&lt;/span&gt;&lt;/div&gt;&lt;div&gt;&lt;span style=&quot;color: rgb(153, 255, 153);&quot;&gt;1 arrangement&lt;/span&gt;&lt;span style=&quot;background-color: initial;&quot;&gt;&lt;br&gt;&lt;/span&gt;&lt;/div&gt;" style="rounded=1;whiteSpace=wrap;html=1;" vertex="1" parent="1">
          <mxGeometry x="769" y="1470" width="150" height="60" as="geometry" />
        </mxCell>
        <mxCell id="Zy5Tw2WqweGs_p7rKQYM-25" value="" style="endArrow=none;dashed=1;html=1;dashPattern=1 3;strokeWidth=2;rounded=0;exitX=1;exitY=0.5;exitDx=0;exitDy=0;entryX=0;entryY=0.5;entryDx=0;entryDy=0;fillColor=#d5e8d4;strokeColor=#82b366;" edge="1" parent="1" source="Zy5Tw2WqweGs_p7rKQYM-21" target="Zy5Tw2WqweGs_p7rKQYM-24">
          <mxGeometry width="50" height="50" relative="1" as="geometry">
            <mxPoint x="524" y="1510" as="sourcePoint" />
            <mxPoint x="579" y="1510" as="targetPoint" />
          </mxGeometry>
        </mxCell>
        <mxCell id="Zy5Tw2WqweGs_p7rKQYM-26" value="" style="endArrow=classic;html=1;rounded=0;exitX=0;exitY=1;exitDx=0;exitDy=0;entryX=1;entryY=0.5;entryDx=0;entryDy=0;fillColor=#e1d5e7;strokeColor=#9673a6;" edge="1" parent="1" source="Zy5Tw2WqweGs_p7rKQYM-24" target="Zy5Tw2WqweGs_p7rKQYM-4">
          <mxGeometry width="50" height="50" relative="1" as="geometry">
            <mxPoint x="617" y="1540" as="sourcePoint" />
            <mxPoint x="349" y="1680" as="targetPoint" />
          </mxGeometry>
        </mxCell>
        <mxCell id="Zy5Tw2WqweGs_p7rKQYM-27" value="" style="endArrow=classic;html=1;rounded=0;exitX=0.5;exitY=1;exitDx=0;exitDy=0;fillColor=#d5e8d4;strokeColor=#82b366;" edge="1" parent="1" source="Zy5Tw2WqweGs_p7rKQYM-1" target="Zy5Tw2WqweGs_p7rKQYM-18">
          <mxGeometry width="50" height="50" relative="1" as="geometry">
            <mxPoint x="399" y="1346" as="sourcePoint" />
            <mxPoint x="239" y="1479" as="targetPoint" />
          </mxGeometry>
        </mxCell>
        <mxCell id="Zy5Tw2WqweGs_p7rKQYM-28" value="" style="endArrow=classic;html=1;rounded=0;exitX=1;exitY=1;exitDx=0;exitDy=0;entryX=0.5;entryY=0;entryDx=0;entryDy=0;fillColor=#d5e8d4;strokeColor=#82b366;" edge="1" parent="1" source="Zy5Tw2WqweGs_p7rKQYM-1" target="Zy5Tw2WqweGs_p7rKQYM-21">
          <mxGeometry width="50" height="50" relative="1" as="geometry">
            <mxPoint x="409" y="1356" as="sourcePoint" />
            <mxPoint x="249" y="1489" as="targetPoint" />
          </mxGeometry>
        </mxCell>
        <mxCell id="Zy5Tw2WqweGs_p7rKQYM-29" value="" style="endArrow=classic;html=1;rounded=0;exitX=1;exitY=0.5;exitDx=0;exitDy=0;entryX=0.5;entryY=0;entryDx=0;entryDy=0;fillColor=#d5e8d4;strokeColor=#82b366;" edge="1" parent="1" source="Zy5Tw2WqweGs_p7rKQYM-1" target="Zy5Tw2WqweGs_p7rKQYM-24">
          <mxGeometry width="50" height="50" relative="1" as="geometry">
            <mxPoint x="419" y="1366" as="sourcePoint" />
            <mxPoint x="259" y="1499" as="targetPoint" />
          </mxGeometry>
        </mxCell>
        <mxCell id="Zy5Tw2WqweGs_p7rKQYM-30" value="&lt;font style=&quot;font-size: 12px;&quot;&gt;??.???..??..?.? 1,2,1,1&lt;/font&gt;&lt;div&gt;&lt;font style=&quot;font-size: 12px;&quot;&gt;&lt;div&gt;&lt;span style=&quot;background-color: initial;&quot;&gt;#?.???..##..#.#&lt;/span&gt;&lt;/div&gt;&lt;div&gt;?#.???..##..#.#&lt;span style=&quot;background-color: initial;&quot;&gt;&lt;br&gt;&lt;/span&gt;&lt;/div&gt;&lt;div&gt;??.#??..##..#.#&lt;br&gt;&lt;/div&gt;&lt;div&gt;??.?#?..##..#.#&lt;br&gt;&lt;/div&gt;&lt;div&gt;??.??#..##..#.#&lt;br&gt;&lt;/div&gt;&lt;div&gt;&lt;br&gt;&lt;/div&gt;&lt;/font&gt;&lt;/div&gt;&lt;div&gt;&lt;span style=&quot;background-color: initial;&quot;&gt;#?.?##..??..#.#&lt;/span&gt;&lt;br&gt;&lt;/div&gt;&lt;div&gt;&lt;font style=&quot;font-size: 12px;&quot;&gt;&lt;div&gt;#?.?##..?#..?.#&lt;br&gt;&lt;/div&gt;&lt;div&gt;#?.?##..?#..#.?&lt;br&gt;&lt;/div&gt;&lt;div&gt;#?.?##..#?..?.#&lt;br&gt;&lt;/div&gt;&lt;div&gt;#?.?##..#?..#.?&lt;/div&gt;&lt;div&gt;&lt;br&gt;&lt;/div&gt;&lt;div&gt;&lt;div&gt;?#.?##..??..#.#&lt;/div&gt;&lt;div&gt;&lt;div&gt;?#.?##..?#..?.#&lt;br&gt;&lt;/div&gt;&lt;div&gt;?#.?##..?#..#.?&lt;br&gt;&lt;/div&gt;&lt;div&gt;?#.?##..#?..?.#&lt;br&gt;&lt;/div&gt;&lt;div&gt;?#.?##..#?..#.?&lt;/div&gt;&lt;/div&gt;&lt;/div&gt;&lt;div&gt;&lt;br&gt;&lt;/div&gt;&lt;div&gt;&lt;div&gt;&lt;span style=&quot;background-color: initial;&quot;&gt;#?.##?..??..#.#&lt;/span&gt;&lt;br&gt;&lt;/div&gt;&lt;div&gt;&lt;div&gt;#?.##?..?#..?.#&lt;br&gt;&lt;/div&gt;&lt;div&gt;#?.##?..?#..#.?&lt;br&gt;&lt;/div&gt;&lt;div&gt;#?.##?..#?..?.#&lt;br&gt;&lt;/div&gt;&lt;div&gt;#?.##?..#?..#.?&lt;/div&gt;&lt;div&gt;&lt;br&gt;&lt;/div&gt;&lt;div&gt;&lt;div&gt;?#.##?..??..#.#&lt;/div&gt;&lt;div&gt;&lt;div&gt;?#.##?..?#..?.#&lt;br&gt;&lt;/div&gt;&lt;div&gt;?#.##?..?#..#.?&lt;br&gt;&lt;/div&gt;&lt;div&gt;?#.##?..#?..?.#&lt;br&gt;&lt;/div&gt;&lt;div&gt;?#.##?..#?..#.?&lt;/div&gt;&lt;/div&gt;&lt;/div&gt;&lt;/div&gt;&lt;/div&gt;&lt;/font&gt;&lt;/div&gt;" style="rounded=1;whiteSpace=wrap;html=1;perimeterSpacing=3;" vertex="1" parent="1">
          <mxGeometry x="339" y="730" width="200" height="490" as="geometry" />
        </mxCell>
        <mxCell id="Zy5Tw2WqweGs_p7rKQYM-31" value="nc : ??,?,?+1,1&lt;div&gt;np : #.,?,?+1,1&lt;/div&gt;&lt;div&gt;&lt;font color=&quot;#99ff99&quot;&gt;2&amp;nbsp;&lt;/font&gt;&lt;span style=&quot;color: rgb(153, 255, 153); background-color: initial;&quot;&gt;arrangements&lt;/span&gt;&lt;/div&gt;" style="rounded=1;whiteSpace=wrap;html=1;" vertex="1" parent="1">
          <mxGeometry x="-441" y="1840" width="150" height="60" as="geometry" />
        </mxCell>
        <mxCell id="Zy5Tw2WqweGs_p7rKQYM-32" value="" style="endArrow=none;dashed=1;html=1;dashPattern=1 3;strokeWidth=2;rounded=0;entryX=0.098;entryY=0.139;entryDx=0;entryDy=0;entryPerimeter=0;exitX=0.25;exitY=0;exitDx=0;exitDy=0;fillColor=#d5e8d4;strokeColor=#82b366;" edge="1" parent="1" source="Zy5Tw2WqweGs_p7rKQYM-2" target="Zy5Tw2WqweGs_p7rKQYM-1">
          <mxGeometry width="50" height="50" relative="1" as="geometry">
            <mxPoint x="-61" y="1910" as="sourcePoint" />
            <mxPoint x="-11" y="1860" as="targetPoint" />
          </mxGeometry>
        </mxCell>
        <mxCell id="Zy5Tw2WqweGs_p7rKQYM-33" value="" style="endArrow=none;dashed=1;html=1;dashPattern=1 3;strokeWidth=2;rounded=0;entryX=0;entryY=1;entryDx=0;entryDy=0;exitX=0.138;exitY=-0.037;exitDx=0;exitDy=0;exitPerimeter=0;fillColor=#d5e8d4;strokeColor=#82b366;" edge="1" parent="1" source="Zy5Tw2WqweGs_p7rKQYM-3" target="Zy5Tw2WqweGs_p7rKQYM-2">
          <mxGeometry width="50" height="50" relative="1" as="geometry">
            <mxPoint x="-13" y="1480" as="sourcePoint" />
            <mxPoint x="401" y="1291" as="targetPoint" />
          </mxGeometry>
        </mxCell>
        <mxCell id="Zy5Tw2WqweGs_p7rKQYM-34" value="nc : ?,?+1&lt;div&gt;np : #,?+&lt;span style=&quot;background-color: initial;&quot;&gt;1&lt;/span&gt;&lt;/div&gt;" style="rounded=1;whiteSpace=wrap;html=1;" vertex="1" parent="1">
          <mxGeometry x="-490" y="1990" width="150" height="60" as="geometry" />
        </mxCell>
        <mxCell id="Zy5Tw2WqweGs_p7rKQYM-35" value="nc : ?,?+1&lt;div&gt;np : #+&lt;span style=&quot;background-color: initial;&quot;&gt;1&lt;/span&gt;&lt;/div&gt;" style="rounded=1;whiteSpace=wrap;html=1;" vertex="1" parent="1">
          <mxGeometry x="-261" y="1990" width="150" height="60" as="geometry" />
        </mxCell>
        <mxCell id="Zy5Tw2WqweGs_p7rKQYM-36" value="" style="endArrow=none;dashed=1;html=1;dashPattern=1 3;strokeWidth=2;rounded=0;exitX=1;exitY=0.5;exitDx=0;exitDy=0;entryX=0;entryY=0.5;entryDx=0;entryDy=0;fillColor=#d5e8d4;strokeColor=#82b366;" edge="1" parent="1" source="Zy5Tw2WqweGs_p7rKQYM-34" target="Zy5Tw2WqweGs_p7rKQYM-35">
          <mxGeometry width="50" height="50" relative="1" as="geometry">
            <mxPoint x="-151" y="2040" as="sourcePoint" />
            <mxPoint x="-101" y="1990" as="targetPoint" />
          </mxGeometry>
        </mxCell>
        <mxCell id="Zy5Tw2WqweGs_p7rKQYM-37" value="" style="endArrow=classic;html=1;rounded=0;entryX=0.25;entryY=0;entryDx=0;entryDy=0;exitX=0.25;exitY=1;exitDx=0;exitDy=0;fillColor=#d5e8d4;strokeColor=#82b366;" edge="1" parent="1" source="Zy5Tw2WqweGs_p7rKQYM-31" target="Zy5Tw2WqweGs_p7rKQYM-34">
          <mxGeometry width="50" height="50" relative="1" as="geometry">
            <mxPoint x="-151" y="2040" as="sourcePoint" />
            <mxPoint x="-101" y="1990" as="targetPoint" />
          </mxGeometry>
        </mxCell>
        <mxCell id="Zy5Tw2WqweGs_p7rKQYM-38" value="" style="endArrow=classic;html=1;rounded=0;entryX=0.25;entryY=0;entryDx=0;entryDy=0;exitX=0.75;exitY=1;exitDx=0;exitDy=0;fillColor=#d5e8d4;strokeColor=#82b366;" edge="1" parent="1" source="Zy5Tw2WqweGs_p7rKQYM-31" target="Zy5Tw2WqweGs_p7rKQYM-35">
          <mxGeometry width="50" height="50" relative="1" as="geometry">
            <mxPoint x="-151" y="2040" as="sourcePoint" />
            <mxPoint x="-101" y="1990" as="targetPoint" />
          </mxGeometry>
        </mxCell>
        <mxCell id="Zy5Tw2WqweGs_p7rKQYM-39" value="" style="endArrow=classic;html=1;rounded=0;entryX=0.5;entryY=0;entryDx=0;entryDy=0;exitX=0.25;exitY=1;exitDx=0;exitDy=0;fillColor=#d5e8d4;strokeColor=#82b366;" edge="1" parent="1" source="Zy5Tw2WqweGs_p7rKQYM-3" target="Zy5Tw2WqweGs_p7rKQYM-31">
          <mxGeometry width="50" height="50" relative="1" as="geometry">
            <mxPoint x="-131" y="1880" as="sourcePoint" />
            <mxPoint x="-81" y="1830" as="targetPoint" />
          </mxGeometry>
        </mxCell>
        <mxCell id="Zy5Tw2WqweGs_p7rKQYM-40" value="nc : ??,?,?+1,1&lt;div&gt;np : #,?,?+1,1&lt;/div&gt;&lt;div&gt;&lt;span style=&quot;color: rgb(153, 255, 153);&quot;&gt;2&amp;nbsp;&lt;/span&gt;&lt;span style=&quot;color: rgb(153, 255, 153); background-color: initial;&quot;&gt;arrangements&lt;/span&gt;&lt;br&gt;&lt;/div&gt;" style="rounded=1;whiteSpace=wrap;html=1;" vertex="1" parent="1">
          <mxGeometry x="-191" y="1840" width="150" height="60" as="geometry" />
        </mxCell>
        <mxCell id="Zy5Tw2WqweGs_p7rKQYM-41" value="" style="endArrow=classic;html=1;rounded=0;entryX=0.5;entryY=0;entryDx=0;entryDy=0;exitX=0.25;exitY=1;exitDx=0;exitDy=0;fillColor=#f8cecc;strokeColor=#b85450;" edge="1" parent="1" source="Zy5Tw2WqweGs_p7rKQYM-40" target="Zy5Tw2WqweGs_p7rKQYM-34">
          <mxGeometry width="50" height="50" relative="1" as="geometry">
            <mxPoint x="-151" y="1930" as="sourcePoint" />
            <mxPoint x="-101" y="1880" as="targetPoint" />
          </mxGeometry>
        </mxCell>
        <mxCell id="Zy5Tw2WqweGs_p7rKQYM-42" value="" style="endArrow=classic;html=1;rounded=0;entryX=0.5;entryY=-0.061;entryDx=0;entryDy=0;entryPerimeter=0;exitX=0.5;exitY=1;exitDx=0;exitDy=0;fillColor=#f8cecc;strokeColor=#b85450;" edge="1" parent="1" source="Zy5Tw2WqweGs_p7rKQYM-40" target="Zy5Tw2WqweGs_p7rKQYM-35">
          <mxGeometry width="50" height="50" relative="1" as="geometry">
            <mxPoint x="-151" y="1930" as="sourcePoint" />
            <mxPoint x="-101" y="1880" as="targetPoint" />
          </mxGeometry>
        </mxCell>
        <mxCell id="Zy5Tw2WqweGs_p7rKQYM-43" value="nc : ??,?,?+1,1&lt;div&gt;np : #,?+1,1&lt;/div&gt;&lt;div&gt;&lt;span style=&quot;color: rgb(153, 255, 153);&quot;&gt;1&amp;nbsp;&lt;/span&gt;&lt;span style=&quot;color: rgb(153, 255, 153); background-color: initial;&quot;&gt;arrangement&lt;/span&gt;&lt;br&gt;&lt;/div&gt;" style="rounded=1;whiteSpace=wrap;html=1;" vertex="1" parent="1">
          <mxGeometry x="39" y="1840" width="150" height="60" as="geometry" />
        </mxCell>
        <mxCell id="Zy5Tw2WqweGs_p7rKQYM-44" value="" style="endArrow=classic;html=1;rounded=0;fillColor=#e1d5e7;strokeColor=#9673a6;exitX=0.465;exitY=0.984;exitDx=0;exitDy=0;exitPerimeter=0;entryX=0.75;entryY=0;entryDx=0;entryDy=0;" edge="1" parent="1" source="Zy5Tw2WqweGs_p7rKQYM-43" target="Zy5Tw2WqweGs_p7rKQYM-35">
          <mxGeometry width="50" height="50" relative="1" as="geometry">
            <mxPoint x="139" y="2010" as="sourcePoint" />
            <mxPoint x="189" y="1960" as="targetPoint" />
          </mxGeometry>
        </mxCell>
        <mxCell id="Zy5Tw2WqweGs_p7rKQYM-45" value="" style="endArrow=none;dashed=1;html=1;dashPattern=1 3;strokeWidth=2;rounded=0;exitX=1;exitY=0.5;exitDx=0;exitDy=0;entryX=0;entryY=0.5;entryDx=0;entryDy=0;fillColor=#d5e8d4;strokeColor=#82b366;" edge="1" parent="1" source="Zy5Tw2WqweGs_p7rKQYM-31" target="Zy5Tw2WqweGs_p7rKQYM-40">
          <mxGeometry width="50" height="50" relative="1" as="geometry">
            <mxPoint x="79" y="1960" as="sourcePoint" />
            <mxPoint x="129" y="1910" as="targetPoint" />
          </mxGeometry>
        </mxCell>
        <mxCell id="Zy5Tw2WqweGs_p7rKQYM-46" value="" style="endArrow=none;dashed=1;html=1;dashPattern=1 3;strokeWidth=2;rounded=0;fillColor=#d5e8d4;strokeColor=#82b366;entryX=1;entryY=0.5;entryDx=0;entryDy=0;exitX=0;exitY=0.5;exitDx=0;exitDy=0;" edge="1" parent="1" source="Zy5Tw2WqweGs_p7rKQYM-43" target="Zy5Tw2WqweGs_p7rKQYM-40">
          <mxGeometry width="50" height="50" relative="1" as="geometry">
            <mxPoint x="149" y="1810" as="sourcePoint" />
            <mxPoint x="199" y="1760" as="targetPoint" />
          </mxGeometry>
        </mxCell>
        <mxCell id="Zy5Tw2WqweGs_p7rKQYM-47" value="" style="endArrow=none;dashed=1;html=1;dashPattern=1 3;strokeWidth=2;rounded=0;entryX=0;entryY=0.5;entryDx=0;entryDy=0;exitX=0.25;exitY=0;exitDx=0;exitDy=0;fillColor=#d5e8d4;strokeColor=#82b366;" edge="1" parent="1" source="Zy5Tw2WqweGs_p7rKQYM-31" target="Zy5Tw2WqweGs_p7rKQYM-3">
          <mxGeometry width="50" height="50" relative="1" as="geometry">
            <mxPoint x="-211" y="2060" as="sourcePoint" />
            <mxPoint x="-161" y="2010" as="targetPoint" />
          </mxGeometry>
        </mxCell>
        <mxCell id="Zy5Tw2WqweGs_p7rKQYM-48" value="" style="endArrow=none;dashed=1;html=1;dashPattern=1 3;strokeWidth=2;rounded=0;fillColor=#d5e8d4;strokeColor=#82b366;entryX=0;entryY=1;entryDx=0;entryDy=0;exitX=0;exitY=0;exitDx=0;exitDy=0;" edge="1" parent="1" source="Zy5Tw2WqweGs_p7rKQYM-34" target="Zy5Tw2WqweGs_p7rKQYM-31">
          <mxGeometry width="50" height="50" relative="1" as="geometry">
            <mxPoint x="-231" y="2060" as="sourcePoint" />
            <mxPoint x="-181" y="2010" as="targetPoint" />
          </mxGeometry>
        </mxCell>
        <mxCell id="Zy5Tw2WqweGs_p7rKQYM-49" value="" style="endArrow=classic;html=1;rounded=0;fillColor=#f8cecc;strokeColor=#b85450;exitX=0.25;exitY=1;exitDx=0;exitDy=0;entryX=0.75;entryY=0;entryDx=0;entryDy=0;" edge="1" parent="1" source="Zy5Tw2WqweGs_p7rKQYM-12" target="Zy5Tw2WqweGs_p7rKQYM-31">
          <mxGeometry width="50" height="50" relative="1" as="geometry">
            <mxPoint x="29" y="1840" as="sourcePoint" />
            <mxPoint x="79" y="1790" as="targetPoint" />
          </mxGeometry>
        </mxCell>
        <mxCell id="Zy5Tw2WqweGs_p7rKQYM-50" value="" style="endArrow=classic;html=1;rounded=0;fillColor=#d5e8d4;strokeColor=#82b366;entryX=0.25;entryY=0;entryDx=0;entryDy=0;exitX=0.75;exitY=1;exitDx=0;exitDy=0;" edge="1" parent="1" source="Zy5Tw2WqweGs_p7rKQYM-3" target="Zy5Tw2WqweGs_p7rKQYM-43">
          <mxGeometry width="50" height="50" relative="1" as="geometry">
            <mxPoint x="-271" y="1840" as="sourcePoint" />
            <mxPoint x="-221" y="1790" as="targetPoint" />
          </mxGeometry>
        </mxCell>
        <mxCell id="Zy5Tw2WqweGs_p7rKQYM-51" value="" style="endArrow=classic;html=1;rounded=0;fillColor=#d5e8d4;strokeColor=#82b366;exitX=0.463;exitY=1.019;exitDx=0;exitDy=0;exitPerimeter=0;entryX=0.5;entryY=0;entryDx=0;entryDy=0;" edge="1" parent="1" source="Zy5Tw2WqweGs_p7rKQYM-3" target="Zy5Tw2WqweGs_p7rKQYM-40">
          <mxGeometry width="50" height="50" relative="1" as="geometry">
            <mxPoint x="-271" y="1840" as="sourcePoint" />
            <mxPoint x="-221" y="1790" as="targetPoint" />
          </mxGeometry>
        </mxCell>
        <mxCell id="Zy5Tw2WqweGs_p7rKQYM-52" value="" style="endArrow=classic;html=1;rounded=0;fillColor=#f8cecc;strokeColor=#b85450;exitX=0.5;exitY=1;exitDx=0;exitDy=0;entryX=0.75;entryY=0;entryDx=0;entryDy=0;" edge="1" parent="1" source="Zy5Tw2WqweGs_p7rKQYM-12" target="Zy5Tw2WqweGs_p7rKQYM-40">
          <mxGeometry width="50" height="50" relative="1" as="geometry">
            <mxPoint x="-1" y="1830" as="sourcePoint" />
            <mxPoint x="49" y="1780" as="targetPoint" />
          </mxGeometry>
        </mxCell>
        <mxCell id="Zy5Tw2WqweGs_p7rKQYM-53" value="" style="endArrow=classic;html=1;rounded=0;fillColor=#f8cecc;strokeColor=#b85450;exitX=0.75;exitY=1;exitDx=0;exitDy=0;entryX=0.5;entryY=0;entryDx=0;entryDy=0;" edge="1" parent="1" source="Zy5Tw2WqweGs_p7rKQYM-12" target="Zy5Tw2WqweGs_p7rKQYM-43">
          <mxGeometry width="50" height="50" relative="1" as="geometry">
            <mxPoint x="-1" y="1830" as="sourcePoint" />
            <mxPoint x="49" y="1780" as="targetPoint" />
          </mxGeometry>
        </mxCell>
        <mxCell id="Zy5Tw2WqweGs_p7rKQYM-54" value="" style="endArrow=classic;html=1;rounded=0;fillColor=#e1d5e7;strokeColor=#9673a6;entryX=1;entryY=0;entryDx=0;entryDy=0;exitX=0.5;exitY=1;exitDx=0;exitDy=0;" edge="1" parent="1" source="Zy5Tw2WqweGs_p7rKQYM-4" target="Zy5Tw2WqweGs_p7rKQYM-43">
          <mxGeometry width="50" height="50" relative="1" as="geometry">
            <mxPoint x="169" y="1710" as="sourcePoint" />
            <mxPoint x="219" y="1660" as="targetPoint" />
          </mxGeometry>
        </mxCell>
      </root>
    </mxGraphModel>
  </diagram>
</mxfile>
